<svg width="59" height="59" viewBox="0 0 59 59" fill="none" xmlns="http://www.w3.org/2000/svg">
<path d="M15.9792 24.5834C15.431 24.5834 14.9049 24.6669 14.3813 24.7431C14.5509 24.1728 14.7254 23.5926 15.0057 23.0715C15.2859 22.3143 15.7235 21.6579 16.1586 20.9966C16.5225 20.2813 17.1641 19.797 17.6361 19.1849C18.1302 18.5899 18.8038 18.1941 19.3373 17.7C19.8609 17.1838 20.5468 16.9256 21.0925 16.5618C21.6628 16.2349 22.1594 15.8735 22.6904 15.7014L24.0155 15.1556L25.1807 14.6714L23.9884 9.9071L22.5208 10.2611C22.0513 10.3791 21.4785 10.5168 20.827 10.6815C20.1608 10.8044 19.4503 11.1412 18.6588 11.4485C17.877 11.7976 16.9723 12.0336 16.1316 12.5941C15.2859 13.13 14.31 13.5774 13.4495 14.2952C12.6162 15.0352 11.6107 15.6768 10.8683 16.6184C10.057 17.4984 9.25563 18.4228 8.63367 19.4749C7.91338 20.4779 7.42417 21.5793 6.90792 22.6683C6.44083 23.7574 6.06471 24.871 5.75742 25.9526C5.17479 28.1209 4.91421 30.181 4.81342 31.9436C4.72983 33.7087 4.779 35.1763 4.88225 36.2383C4.91913 36.7398 4.98796 37.2266 5.03713 37.5634L5.09858 37.9764L5.1625 37.9616C5.59974 40.0041 6.60629 41.881 8.0657 43.3753C9.52512 44.8696 11.3778 45.9202 13.4093 46.4055C15.4409 46.8909 17.5683 46.7912 19.5456 46.1179C21.5229 45.4447 23.2691 44.2254 24.5824 42.6012C25.8956 40.9769 26.7222 39.0141 26.9665 36.9397C27.2108 34.8653 26.8628 32.7641 25.9628 30.8792C25.0628 28.9943 23.6475 27.4027 21.8808 26.2886C20.114 25.1744 18.0679 24.5832 15.9792 24.5834V24.5834ZM43.0208 24.5834C42.4726 24.5834 41.9465 24.6669 41.4229 24.7431C41.5925 24.1728 41.7671 23.5926 42.0473 23.0715C42.3276 22.3143 42.7652 21.6579 43.2003 20.9966C43.5641 20.2813 44.2058 19.797 44.6778 19.1849C45.1719 18.5899 45.8455 18.1941 46.3789 17.7C46.9025 17.1838 47.5884 16.9256 48.1342 16.5618C48.7045 16.2349 49.2011 15.8735 49.7321 15.7014L51.0571 15.1556L52.2224 14.6714L51.0301 9.9071L49.5625 10.2611C49.0929 10.3791 48.5201 10.5168 47.8687 10.6815C47.2025 10.8044 46.492 11.1412 45.7004 11.4485C44.9211 11.8 44.014 12.0336 43.1733 12.5965C42.3276 13.1324 41.3516 13.5799 40.4912 14.2977C39.6578 15.0376 38.6524 15.6793 37.91 16.6184C37.0987 17.4984 36.2973 18.4228 35.6753 19.4749C34.955 20.4779 34.4658 21.5793 33.9496 22.6683C33.4825 23.7574 33.1064 24.871 32.7991 25.9526C32.2165 28.1209 31.9559 30.181 31.8551 31.9436C31.7715 33.7087 31.8207 35.1763 31.9239 36.2383C31.9608 36.7398 32.0296 37.2266 32.0788 37.5634L32.1403 37.9764L32.2042 37.9616C32.6414 40.0041 33.648 41.881 35.1074 43.3753C36.5668 44.8696 38.4194 45.9202 40.451 46.4055C42.4826 46.8909 44.61 46.7912 46.5873 46.1179C48.5645 45.4447 50.3108 44.2254 51.624 42.6012C52.9373 40.9769 53.7639 39.0141 54.0082 36.9397C54.2524 34.8653 53.9045 32.7641 53.0045 30.8792C52.1045 28.9943 50.6892 27.4027 48.9224 26.2886C47.1557 25.1744 45.1096 24.5832 43.0208 24.5834V24.5834Z" fill="#4EC3B9"/>
</svg>
