<svg width="16" height="17" viewBox="0 0 16 17" fill="none" xmlns="http://www.w3.org/2000/svg">
<g clip-path="url(#clip0)">
<path d="M14 1.06482C14.2652 1.06482 14.5196 1.17018 14.7071 1.35771C14.8946 1.54525 15 1.7996 15 2.06482V14.0648C15 14.33 14.8946 14.5844 14.7071 14.7719C14.5196 14.9595 14.2652 15.0648 14 15.0648H2C1.73478 15.0648 1.48043 14.9595 1.29289 14.7719C1.10536 14.5844 1 14.33 1 14.0648V2.06482C1 1.7996 1.10536 1.54525 1.29289 1.35771C1.48043 1.17018 1.73478 1.06482 2 1.06482H14ZM2 0.0648193C1.46957 0.0648193 0.960859 0.275533 0.585786 0.650606C0.210714 1.02568 0 1.53439 0 2.06482L0 14.0648C0 14.5953 0.210714 15.104 0.585786 15.479C0.960859 15.8541 1.46957 16.0648 2 16.0648H14C14.5304 16.0648 15.0391 15.8541 15.4142 15.479C15.7893 15.104 16 14.5953 16 14.0648V2.06482C16 1.53439 15.7893 1.02568 15.4142 0.650606C15.0391 0.275533 14.5304 0.0648193 14 0.0648193L2 0.0648193Z" fill="#4EC3B9"/>
<path d="M10.97 5.03486C11.1099 4.89613 11.2989 4.81805 11.4959 4.81751C11.693 4.81696 11.8823 4.894 12.023 5.03195C12.1637 5.1699 12.2445 5.3577 12.2479 5.55472C12.2512 5.75175 12.1769 5.94219 12.041 6.08486L8.04897 11.0749C7.98037 11.1488 7.89756 11.2081 7.80551 11.2492C7.71345 11.2904 7.61405 11.3126 7.51323 11.3144C7.41241 11.3163 7.31225 11.2978 7.21873 11.2601C7.12522 11.2224 7.04027 11.1662 6.96897 11.0949L4.32397 8.44886C4.25029 8.38019 4.19119 8.29739 4.15019 8.20539C4.1092 8.11339 4.08716 8.01408 4.08538 7.91338C4.08361 7.81268 4.10213 7.71265 4.13985 7.61926C4.17757 7.52587 4.23372 7.44104 4.30494 7.36982C4.37616 7.2986 4.46099 7.24245 4.55438 7.20473C4.64777 7.16701 4.74779 7.14849 4.8485 7.15026C4.9492 7.15204 5.04851 7.17408 5.14051 7.21507C5.23251 7.25607 5.31531 7.31517 5.38397 7.38886L7.47798 9.48186L10.951 5.05686C10.9572 5.04911 10.9639 5.04176 10.971 5.03486H10.97Z" fill="#4EC3B9"/>
</g>
<defs>
<clipPath id="clip0">
<rect width="16" height="16" fill="white" transform="translate(0 0.0648193)"/>
</clipPath>
</defs>
</svg>
