<svg width="41" height="39" viewBox="0 0 41 39" fill="none" xmlns="http://www.w3.org/2000/svg">
<path fill-rule="evenodd" clip-rule="evenodd" d="M34.3854 29.3542C33.5539 29.3542 32.7563 29.6846 32.1683 30.2726C31.5803 30.8606 31.25 31.6581 31.25 32.4897C31.25 33.3212 31.5803 34.1187 32.1683 34.7067C32.7563 35.2947 33.5539 35.6251 34.3854 35.6251C35.217 35.6251 36.0145 35.2947 36.6025 34.7067C37.1905 34.1187 37.5208 33.3212 37.5208 32.4897C37.5208 31.6581 37.1905 30.8606 36.6025 30.2726C36.0145 29.6846 35.217 29.3542 34.3854 29.3542V29.3542ZM28.5625 32.4897C28.5625 30.9453 29.176 29.4642 30.268 28.3722C31.36 27.2802 32.8411 26.6667 34.3854 26.6667C35.9297 26.6667 37.4108 27.2802 38.5028 28.3722C39.5948 29.4642 40.2083 30.9453 40.2083 32.4897C40.2083 34.034 39.5948 35.5151 38.5028 36.6071C37.4108 37.6991 35.9297 38.3126 34.3854 38.3126C32.8411 38.3126 31.36 37.6991 30.268 36.6071C29.176 35.5151 28.5625 34.034 28.5625 32.4897Z" fill="#4EC3B9"/>
<path fill-rule="evenodd" clip-rule="evenodd" d="M23.9131 1.08167C24.1648 1.33362 24.3061 1.67516 24.3061 2.03125C24.3061 2.38734 24.1648 2.72888 23.9131 2.98083L21.7273 5.16667H29.0104C30.7923 5.16667 32.5013 5.87453 33.7613 7.13454C35.0213 8.39455 35.7292 10.1035 35.7292 11.8854V27.5625C35.7292 27.9189 35.5876 28.2607 35.3356 28.5127C35.0836 28.7647 34.7418 28.9062 34.3854 28.9062C34.029 28.9062 33.6872 28.7647 33.4352 28.5127C33.1832 28.2607 33.0417 27.9189 33.0417 27.5625V11.8854C33.0417 11.356 32.9374 10.8318 32.7348 10.3427C32.5322 9.85363 32.2353 9.40923 31.8609 9.03489C31.4866 8.66056 31.0422 8.36362 30.5531 8.16103C30.064 7.95844 29.5398 7.85417 29.0104 7.85417H21.7291L23.9149 10.04C24.1596 10.2935 24.2949 10.633 24.2916 10.9854C24.2884 11.3377 24.1469 11.6747 23.8977 11.9237C23.6484 12.1727 23.3113 12.3139 22.959 12.3168C22.6067 12.3197 22.2673 12.1841 22.014 11.9392L17.5348 7.46C17.2832 7.20805 17.1418 6.86651 17.1418 6.51042C17.1418 6.15432 17.2832 5.81279 17.5348 5.56083L22.014 1.08167C22.2659 0.830026 22.6075 0.688682 22.9635 0.688682C23.3196 0.688682 23.6612 0.830026 23.9131 1.08167V1.08167ZM6.61459 9.64583C7.02634 9.64583 7.43405 9.56473 7.81446 9.40716C8.19487 9.24959 8.54051 9.01864 8.83166 8.72749C9.12281 8.43634 9.35377 8.09069 9.51134 7.71029C9.66891 7.32988 9.75 6.92217 9.75 6.51042C9.75 6.09867 9.66891 5.69095 9.51134 5.31054C9.35377 4.93014 9.12281 4.58449 8.83166 4.29334C8.54051 4.00219 8.19487 3.77124 7.81446 3.61367C7.43405 3.4561 7.02634 3.375 6.61459 3.375C5.78302 3.375 4.98552 3.70534 4.39751 4.29334C3.80951 4.88135 3.47917 5.67885 3.47917 6.51042C3.47917 7.34198 3.80951 8.13949 4.39751 8.72749C4.98552 9.3155 5.78302 9.64583 6.61459 9.64583V9.64583ZM12.4375 6.51042C12.4375 8.05475 11.824 9.53583 10.732 10.6278C9.64 11.7198 8.15892 12.3333 6.61459 12.3333C5.07025 12.3333 3.58917 11.7198 2.49716 10.6278C1.40516 9.53583 0.791672 8.05475 0.791672 6.51042C0.791672 4.96608 1.40516 3.485 2.49716 2.39299C3.58917 1.30098 5.07025 0.6875 6.61459 0.6875C8.15892 0.6875 9.64 1.30098 10.732 2.39299C11.824 3.485 12.4375 4.96608 12.4375 6.51042V6.51042Z" fill="#4EC3B9"/>
<path fill-rule="evenodd" clip-rule="evenodd" d="M17.0869 37.9183C16.8352 37.6664 16.6939 37.3248 16.6939 36.9687C16.6939 36.6127 16.8352 36.2711 17.0869 36.0192L19.2727 33.8333H11.9896C10.2077 33.8333 8.49871 33.1255 7.2387 31.8655C5.97869 30.6054 5.27083 28.8965 5.27083 27.1146V11.4375C5.27083 11.0811 5.4124 10.7393 5.6644 10.4873C5.91641 10.2353 6.25819 10.0938 6.61458 10.0938C6.97096 10.0938 7.31275 10.2353 7.56475 10.4873C7.81676 10.7393 7.95833 11.0811 7.95833 11.4375V27.1146C7.95833 28.1837 8.38305 29.2091 9.13905 29.9651C9.89506 30.7211 10.9204 31.1458 11.9896 31.1458H19.2709L17.0851 28.96C16.9568 28.836 16.8545 28.6877 16.7842 28.5237C16.7138 28.3597 16.6768 28.1834 16.6754 28.0049C16.6739 27.8265 16.708 27.6496 16.7756 27.4845C16.8433 27.3194 16.9431 27.1694 17.0693 27.0433C17.1956 26.9172 17.3456 26.8175 17.5108 26.75C17.676 26.6825 17.8529 26.6486 18.0314 26.6502C18.2098 26.6518 18.3861 26.689 18.55 26.7595C18.7139 26.83 18.8621 26.9324 18.986 27.0608L23.4652 31.54C23.7168 31.792 23.8582 32.1335 23.8582 32.4896C23.8582 32.8457 23.7168 33.1872 23.4652 33.4392L18.986 37.9183C18.7341 38.17 18.3925 38.3113 18.0365 38.3113C17.6804 38.3113 17.3388 38.17 17.0869 37.9183V37.9183Z" fill="#4EC3B9"/>
</svg>
