<svg width="31" height="34" viewBox="0 0 31 34" fill="none" xmlns="http://www.w3.org/2000/svg">
<path d="M2.56267 34L24.6347 0H27.8173L5.66267 34H2.56267ZM7.192 0.622711C11.1187 0.622711 14.3427 3.86081 14.3427 7.80464C14.3427 11.79 11.1187 15.0281 7.192 15.0281C3.224 15.0281 0 11.79 0 7.80464C0 3.86081 3.224 0.622711 7.192 0.622711ZM7.192 12.4542C9.71333 12.4542 11.78 10.337 11.78 7.80464C11.78 5.27228 9.71333 3.2381 7.192 3.2381C4.67067 3.2381 2.604 5.27228 2.604 7.80464C2.604 10.337 4.67067 12.4542 7.192 12.4542ZM23.808 18.3492C27.776 18.3492 31 21.5873 31 25.5727C31 29.5165 27.776 32.7961 23.808 32.7961C19.8813 32.7961 16.6573 29.5165 16.6573 25.5727C16.6573 21.5873 19.8813 18.3492 23.808 18.3492ZM23.808 30.1807C26.3293 30.1807 28.396 28.105 28.396 25.5727C28.396 23.0403 26.3293 20.9646 23.808 20.9646C21.2867 20.9646 19.22 23.0403 19.22 25.5727C19.22 28.105 21.2867 30.1807 23.808 30.1807Z" fill="#4EC3B9"/>
</svg>
