<svg width="35" height="31" viewBox="0 0 35 31" fill="none" xmlns="http://www.w3.org/2000/svg">
<path d="M18.0373 0.930166C17.8362 0.773379 17.5885 0.688232 17.3336 0.688232C17.0786 0.688232 16.8309 0.773379 16.6297 0.930166L0.34375 13.6292L1.75248 15.4108L3.74375 13.8581V27.8876C3.74495 28.4884 3.98414 29.0643 4.40896 29.4891C4.83379 29.9139 5.40963 30.1531 6.01042 30.1543H28.6771C29.2779 30.1531 29.8537 29.9139 30.2785 29.4891C30.7034 29.0643 30.9426 28.4884 30.9437 27.8876V13.8683L32.935 15.421L34.3437 13.6394L18.0373 0.930166ZM19.6104 27.8876H15.0771V18.821H19.6104V27.8876ZM21.8771 27.8876V18.821C21.8765 18.22 21.6375 17.6438 21.2125 17.2189C20.7876 16.7939 20.2114 16.5549 19.6104 16.5543H15.0771C14.4761 16.5549 13.8999 16.7939 13.475 17.2189C13.05 17.6438 12.811 18.22 12.8104 18.821V27.8876H6.01042V12.0912L17.3437 3.26257L28.6771 12.1026V27.8876H21.8771Z" fill="#4EC3B9"/>
</svg>
